<svg xmlns="http://www.w3.org/2000/svg" xmlns:xlink="http://www.w3.org/1999/xlink" width="2000" zoomAndPan="magnify" viewBox="0 0 1500 749.999995" height="1000" preserveAspectRatio="xMidYMid meet" version="1.0"><defs><g/></defs><g fill="#efefef" fill-opacity="1"><g transform="translate(75.594476, 506.999995)"><g><path d="M 326.234375 0 L 33.765625 0 L 33.765625 -422.03125 L 67.109375 -422.03125 L 67.109375 -37.140625 C 67.109375 -25.878906 68.9375 -18.28125 72.59375 -14.34375 C 76.25 -10.40625 81.875 -8.4375 89.46875 -8.4375 C 104.945312 -8.4375 121.546875 -9 139.265625 -10.125 C 156.992188 -11.25 175.070312 -12.722656 193.5 -14.546875 C 211.925781 -16.378906 229.578125 -18.5625 246.453125 -21.09375 C 263.335938 -23.632812 278.671875 -26.3125 292.453125 -29.125 C 306.242188 -31.9375 317.503906 -34.75 326.234375 -37.5625 Z M 326.234375 0 "/></g></g></g><g fill="#efefef" fill-opacity="1"><g transform="translate(402.663243, 506.999995)"><g><path d="M 61.609375 0 L 27.859375 0 L 27.859375 -292.046875 L 61.609375 -292.046875 Z M 5.484375 -359.15625 C 4.078125 -359.71875 3.375 -360.347656 3.375 -361.046875 C 3.375 -361.753906 4.078125 -362.25 5.484375 -362.53125 C 13.359375 -365.0625 19.546875 -367.660156 24.046875 -370.328125 C 28.554688 -373.003906 32.21875 -376.875 35.03125 -381.9375 C 37.84375 -387 40.515625 -394.035156 43.046875 -403.046875 C 43.609375 -404.453125 44.453125 -405.15625 45.578125 -405.15625 C 46.703125 -405.15625 47.40625 -404.453125 47.6875 -403.046875 C 50.21875 -394.035156 52.890625 -387 55.703125 -381.9375 C 58.515625 -376.875 62.171875 -372.9375 66.671875 -370.125 C 71.179688 -367.3125 77.375 -364.78125 85.25 -362.53125 C 86.65625 -362.25 87.359375 -361.753906 87.359375 -361.046875 C 87.359375 -360.347656 86.65625 -359.71875 85.25 -359.15625 C 77.65625 -356.613281 71.394531 -354.003906 66.46875 -351.328125 C 61.539062 -348.660156 57.671875 -344.863281 54.859375 -339.9375 C 52.046875 -335.019531 49.65625 -327.78125 47.6875 -318.21875 C 47.40625 -317.082031 46.628906 -316.515625 45.359375 -316.515625 C 44.097656 -316.515625 43.328125 -317.082031 43.046875 -318.21875 C 40.515625 -327.78125 37.84375 -335.019531 35.03125 -339.9375 C 32.21875 -344.863281 28.554688 -348.660156 24.046875 -351.328125 C 19.546875 -354.003906 13.359375 -356.613281 5.484375 -359.15625 Z M 5.484375 -359.15625 "/></g></g></g><g fill="#efefef" fill-opacity="1"><g transform="translate(475.673363, 506.999995)"><g><path d="M 22.796875 -52.75 C 22.796875 -57.53125 24.410156 -61.539062 27.640625 -64.78125 C 30.878906 -68.019531 34.890625 -69.640625 39.671875 -69.640625 C 44.734375 -69.640625 49.234375 -67.316406 53.171875 -62.671875 C 57.109375 -58.023438 61.257812 -52.253906 65.625 -45.359375 C 69.988281 -38.472656 75.265625 -31.507812 81.453125 -24.46875 C 87.640625 -17.4375 95.515625 -11.597656 105.078125 -6.953125 C 114.648438 -2.316406 126.75 0 141.375 0 C 154.882812 0 167.546875 -2.175781 179.359375 -6.53125 C 191.179688 -10.894531 201.453125 -16.664062 210.171875 -23.84375 C 218.890625 -31.019531 225.710938 -38.753906 230.640625 -47.046875 C 235.566406 -55.347656 238.03125 -63.441406 238.03125 -71.328125 C 238.03125 -84.265625 235.070312 -94.8125 229.15625 -102.96875 C 223.25 -111.132812 215.226562 -117.535156 205.09375 -122.171875 C 194.96875 -126.816406 183.644531 -130.613281 171.125 -133.5625 C 158.613281 -136.519531 145.742188 -139.191406 132.515625 -141.578125 C 119.296875 -143.972656 106.425781 -146.929688 93.90625 -150.453125 C 81.382812 -153.972656 70.054688 -158.613281 59.921875 -164.375 C 49.796875 -170.144531 41.78125 -177.882812 35.875 -187.59375 C 29.96875 -197.300781 27.015625 -209.75 27.015625 -224.9375 C 27.015625 -239.007812 31.234375 -251.742188 39.671875 -263.140625 C 48.109375 -274.535156 60.414062 -283.609375 76.59375 -290.359375 C 92.769531 -297.109375 112.675781 -300.484375 136.3125 -300.484375 C 171.757812 -300.484375 198.414062 -297.175781 216.28125 -290.5625 C 234.15625 -283.957031 243.09375 -274.882812 243.09375 -263.34375 C 243.09375 -260.25 241.472656 -257.222656 238.234375 -254.265625 C 235.003906 -251.316406 231.273438 -249.84375 227.046875 -249.84375 C 220.578125 -249.84375 214.390625 -252.09375 208.484375 -256.59375 C 202.578125 -261.09375 196.242188 -266.367188 189.484375 -272.421875 C 182.734375 -278.472656 175.140625 -283.75 166.703125 -288.25 C 158.265625 -292.75 148.273438 -295 136.734375 -295 C 121.265625 -295 107.832031 -291.90625 96.4375 -285.71875 C 85.039062 -279.53125 76.175781 -271.648438 69.84375 -262.078125 C 63.507812 -252.515625 60.34375 -242.523438 60.34375 -232.109375 C 60.34375 -219.453125 64 -209.535156 71.3125 -202.359375 C 78.632812 -195.191406 88.273438 -189.632812 100.234375 -185.6875 C 112.191406 -181.75 125.34375 -178.441406 139.6875 -175.765625 C 154.039062 -173.097656 168.390625 -170.078125 182.734375 -166.703125 C 197.085938 -163.328125 210.242188 -158.613281 222.203125 -152.5625 C 234.160156 -146.507812 243.796875 -138.140625 251.109375 -127.453125 C 258.421875 -116.765625 262.078125 -102.695312 262.078125 -85.25 C 262.078125 -65.269531 256.519531 -48.242188 245.40625 -34.171875 C 234.289062 -20.109375 219.304688 -9.488281 200.453125 -2.3125 C 181.609375 4.851562 160.367188 8.4375 136.734375 8.4375 C 121.828125 8.4375 107.550781 6.609375 93.90625 2.953125 C 80.257812 -0.703125 68.085938 -5.550781 57.390625 -11.59375 C 46.703125 -17.644531 38.265625 -24.257812 32.078125 -31.4375 C 25.890625 -38.613281 22.796875 -45.71875 22.796875 -52.75 Z M 22.796875 -52.75 "/></g></g></g><g fill="#efefef" fill-opacity="1"><g transform="translate(739.860438, 506.999995)"><g><path d="M 8.4375 -283.609375 L 8.4375 -292.046875 C 22.226562 -292.046875 33.550781 -295.140625 42.40625 -301.328125 C 51.269531 -307.515625 57.953125 -315.039062 62.453125 -323.90625 C 66.960938 -332.769531 69.21875 -341 69.21875 -348.59375 C 69.21875 -357.039062 66.960938 -364.359375 62.453125 -370.546875 C 57.953125 -376.734375 52.46875 -379.828125 46 -379.828125 C 40.9375 -379.828125 37.628906 -378.703125 36.078125 -376.453125 C 34.535156 -374.203125 33.484375 -371.53125 32.921875 -368.4375 C 32.359375 -365.34375 31.441406 -362.664062 30.171875 -360.40625 C 28.910156 -358.15625 26.171875 -357.03125 21.953125 -357.03125 C 17.160156 -357.03125 13.707031 -358.578125 11.59375 -361.671875 C 9.488281 -364.773438 8.4375 -367.734375 8.4375 -370.546875 C 8.4375 -378.140625 11.53125 -383.625 17.71875 -387 C 23.914062 -390.375 29.828125 -392.0625 35.453125 -392.0625 C 44.453125 -392.0625 52.117188 -389.878906 58.453125 -385.515625 C 64.785156 -381.160156 69.640625 -375.75 73.015625 -369.28125 C 76.390625 -362.8125 78.078125 -356.335938 78.078125 -349.859375 C 78.078125 -341.703125 76.457031 -333.820312 73.21875 -326.21875 C 69.988281 -318.625 64.710938 -311.59375 57.390625 -305.125 C 53.734375 -302.03125 52.253906 -299.5 52.953125 -297.53125 C 53.660156 -295.5625 55.421875 -294.15625 58.234375 -293.3125 C 61.046875 -292.46875 63.722656 -292.046875 66.265625 -292.046875 L 99.59375 -292.046875 L 99.59375 -283.609375 C 89.46875 -283.609375 82.363281 -282.34375 78.28125 -279.8125 C 74.207031 -277.28125 71.816406 -273.550781 71.109375 -268.625 C 70.410156 -263.695312 70.0625 -257.296875 70.0625 -249.421875 L 70.0625 0 L 36.296875 0 L 36.296875 -224.9375 C 36.296875 -237.320312 37 -247.03125 38.40625 -254.0625 C 39.8125 -261.09375 43.046875 -267.140625 48.109375 -272.203125 C 52.890625 -276.992188 55.066406 -280.09375 54.640625 -281.5 C 54.222656 -282.90625 50.921875 -283.609375 44.734375 -283.609375 Z M 8.4375 -283.609375 "/></g></g></g><g fill="#efefef" fill-opacity="1"><g transform="translate(830.173544, 506.999995)"><g><path d="M 166.28125 8.4375 C 138.144531 8.4375 113.171875 2.109375 91.359375 -10.546875 C 69.554688 -23.210938 52.394531 -41.148438 39.875 -64.359375 C 27.351562 -87.566406 21.09375 -115.066406 21.09375 -146.859375 C 21.09375 -167.960938 25.171875 -187.726562 33.328125 -206.15625 C 41.492188 -224.59375 52.679688 -240.914062 66.890625 -255.125 C 81.097656 -269.332031 97.554688 -280.441406 116.265625 -288.453125 C 134.972656 -296.472656 155.019531 -300.484375 176.40625 -300.484375 C 191.039062 -300.484375 205.390625 -298.300781 219.453125 -293.9375 C 233.523438 -289.582031 245.203125 -282.832031 254.484375 -273.6875 C 263.765625 -264.539062 268.40625 -252.796875 268.40625 -238.453125 C 268.40625 -222.972656 263.625 -208.691406 254.0625 -195.609375 C 244.5 -182.523438 231.488281 -171.128906 215.03125 -161.421875 C 198.570312 -151.710938 180 -144.1875 159.3125 -138.84375 C 138.632812 -133.5 117.039062 -130.828125 94.53125 -130.828125 C 91.71875 -130.828125 89.113281 -130.828125 86.71875 -130.828125 C 84.332031 -130.828125 82.015625 -130.828125 79.765625 -130.828125 C 73.296875 -131.109375 68.367188 -129.421875 64.984375 -125.765625 C 61.609375 -122.109375 60.484375 -117.328125 61.609375 -111.421875 C 68.367188 -77.929688 81.59375 -51.691406 101.28125 -32.703125 C 120.976562 -13.710938 145.878906 -4.21875 175.984375 -4.21875 C 199.335938 -4.21875 218.609375 -10.054688 233.796875 -21.734375 C 248.992188 -33.410156 260.109375 -47.125 267.140625 -62.875 L 276.015625 -57.8125 C 266.441406 -37.5625 252.863281 -21.457031 235.28125 -9.5 C 217.695312 2.457031 194.695312 8.4375 166.28125 8.4375 Z M 57.390625 -159.53125 C 57.109375 -154.75 58.445312 -150.316406 61.40625 -146.234375 C 64.363281 -142.148438 68.09375 -139.828125 72.59375 -139.265625 C 75.6875 -138.984375 78.988281 -138.628906 82.5 -138.203125 C 86.019531 -137.785156 89.890625 -137.578125 94.109375 -137.578125 C 105.085938 -137.578125 116.976562 -139.050781 129.78125 -142 C 142.582031 -144.957031 155.097656 -149.25 167.328125 -154.875 C 179.566406 -160.507812 190.75 -167.332031 200.875 -175.34375 C 211.007812 -183.363281 219.101562 -192.4375 225.15625 -202.5625 C 231.207031 -212.695312 234.234375 -223.675781 234.234375 -235.5 C 234.234375 -247.59375 231.414062 -257.859375 225.78125 -266.296875 C 220.15625 -274.742188 212.84375 -281.144531 203.84375 -285.5 C 194.84375 -289.863281 185.132812 -292.046875 174.71875 -292.046875 C 156.425781 -292.046875 140.101562 -288.316406 125.75 -280.859375 C 111.40625 -273.398438 99.238281 -263.410156 89.25 -250.890625 C 79.269531 -238.367188 71.601562 -224.226562 66.25 -208.46875 C 60.90625 -192.71875 57.953125 -176.40625 57.390625 -159.53125 Z M 57.390625 -159.53125 "/></g></g></g><g fill="#efefef" fill-opacity="1"><g transform="translate(1103.22315, 506.999995)"><g><path d="M 29.546875 0 L 29.546875 -292.046875 L 63.296875 -292.046875 L 63.296875 -260.8125 C 63.296875 -253.78125 64.566406 -250.265625 67.109375 -250.265625 C 68.796875 -250.265625 71.890625 -252.234375 76.390625 -256.171875 C 91.578125 -270.804688 107.753906 -281.847656 124.921875 -289.296875 C 142.085938 -296.753906 161.640625 -300.484375 183.578125 -300.484375 C 204.960938 -300.484375 223.742188 -296.332031 239.921875 -288.03125 C 256.097656 -279.738281 268.757812 -268.273438 277.90625 -253.640625 C 287.050781 -239.003906 291.625 -222.125 291.625 -203 L 291.625 0 L 257.859375 0 L 257.859375 -202.15625 C 257.859375 -222.125 254.0625 -238.71875 246.46875 -251.9375 C 238.875 -265.164062 228.882812 -275.15625 216.5 -281.90625 C 204.125 -288.664062 190.898438 -292.046875 176.828125 -292.046875 C 162.765625 -292.046875 148.976562 -289.375 135.46875 -284.03125 C 121.96875 -278.6875 109.800781 -271.441406 98.96875 -262.296875 C 88.132812 -253.148438 79.476562 -242.804688 73 -231.265625 C 66.53125 -219.734375 63.296875 -207.78125 63.296875 -195.40625 L 63.296875 0 Z M 29.546875 0 "/></g></g></g></svg>